<?xml version="1.0" standalone="no"?>
<!DOCTYPE svg PUBLIC "-//W3C//DTD SVG 20010904//EN"
 "http://www.w3.org/TR/2001/REC-SVG-20010904/DTD/svg10.dtd">
<svg version="1.0" xmlns="http://www.w3.org/2000/svg"
 width="700.000000pt" height="700.000000pt" viewBox="0 0 700.000000 700.000000"
 preserveAspectRatio="xMidYMid meet">
<metadata>
Created by potrace 1.11, written by Peter Selinger 2001-2013
</metadata>
<g transform="translate(0.000000,700.000000) scale(0.100000,-0.100000)"
fill="#000000" stroke="none">
<path d="M3570 4480 c-84 -250 -207 -612 -272 -805 -66 -192 -125 -370 -133
-395 -7 -25 -46 -139 -85 -255 -125 -361 -231 -679 -236 -702 -2 -12 -9 -34
-14 -48 -6 -15 -10 -37 -10 -49 l0 -23 175 2 c96 1 177 4 180 7 5 5 148 415
159 458 3 8 21 62 41 120 20 58 38 112 40 120 2 8 49 146 103 305 373 1093
571 1687 565 1701 -6 16 -10 16 -214 18 l-147 1 -152 -455z"/>
<path d="M2587 4315 c-9 -8 -23 -15 -31 -15 -20 0 -110 -41 -114 -52 -2 -4
-12 -8 -23 -8 -25 0 -99 -29 -127 -51 -13 -10 -37 -21 -55 -24 -18 -4 -120
-44 -227 -90 -107 -46 -256 -108 -329 -140 -74 -31 -155 -67 -180 -81 -25 -13
-51 -24 -58 -24 -6 0 -68 -25 -138 -55 -69 -30 -132 -55 -140 -55 -17 0 -17 5
-21 -215 -4 -245 -12 -226 109 -274 56 -22 114 -43 129 -47 15 -3 32 -12 39
-20 6 -7 27 -17 48 -20 20 -4 41 -13 46 -19 6 -7 82 -42 170 -78 88 -36 243
-102 344 -146 102 -45 189 -81 194 -81 4 0 33 -11 63 -25 30 -14 62 -25 71
-25 9 0 24 -6 32 -13 24 -21 212 -100 219 -92 7 7 11 415 5 462 -5 29 -11 34
-72 57 -91 35 -192 66 -215 66 -11 0 -27 6 -35 14 -21 19 -370 146 -400 146
-8 0 -37 11 -65 24 -28 14 -69 32 -91 41 -26 12 -35 19 -25 23 8 3 17 8 20 12
3 4 41 19 85 33 112 36 230 78 370 132 124 48 133 51 225 80 30 9 62 24 71 31
9 8 32 16 51 18 60 6 76 15 80 45 6 44 3 469 -4 476 -3 3 -13 -1 -21 -10z"/>
<path d="M4349 4307 c-4 -96 3 -473 9 -478 11 -11 289 -99 311 -99 10 0 21 -5
23 -10 2 -6 14 -12 28 -15 14 -2 43 -14 65 -25 21 -11 52 -20 68 -20 16 0 34
-6 42 -13 12 -13 302 -114 343 -120 17 -3 52 -29 52 -40 0 -2 -21 -10 -47 -17
-53 -15 -401 -137 -556 -195 -55 -20 -104 -38 -110 -39 -7 -1 -56 -17 -110
-35 -80 -27 -100 -38 -108 -58 -12 -33 -11 -454 1 -473 9 -13 12 -13 24 3 7 9
23 17 34 17 24 0 135 46 172 71 14 9 41 20 60 24 19 4 49 16 66 26 17 10 38
19 45 19 22 0 190 77 211 97 11 10 21 16 22 14 3 -11 78 12 111 35 20 13 44
23 53 22 9 -2 16 2 15 9 -2 6 5 11 15 10 24 -1 82 23 82 34 0 5 10 9 22 9 27
0 150 48 163 64 6 6 30 18 55 25 55 15 180 71 180 80 0 4 11 8 24 9 13 1 46
10 73 21 l48 19 2 208 c1 126 -3 214 -9 221 -5 7 -26 17 -46 23 -20 7 -55 21
-78 31 -22 10 -50 19 -61 19 -12 0 -23 6 -26 13 -3 8 -27 22 -54 32 -26 10
-149 60 -273 112 -124 52 -256 107 -295 123 -38 16 -135 57 -215 91 -165 71
-271 109 -282 102 -5 -2 -8 0 -8 6 0 12 -44 36 -101 56 -38 14 -39 13 -40 -8z"/>
</g>
</svg>
