<svg version="1" xmlns="http://www.w3.org/2000/svg" width="682.667" height="682.667" viewBox="0 0 512.000000 512.000000"><path d="M271.3 153.7c-.4 1.6-.8 3-.8 3.3-.1.3-.4 1.2-.8 2-1.1 2.7-8.8 25.4-10.7 31.5-1 3.3-5.1 15.4-9 27-9.4 27.3-37.1 109-41.4 122.3-2.5 7.5-3.1 10.5-2.2 10.8.7.3 6.8.3 13.6.2l12.4-.3 7.8-23C251.1 295.3 261.3 265 280 210c8.9-26.1 16.3-48.2 16.5-49 .2-.8.8-2.8 1.4-4.3 2.2-5.7 2.3-5.7-12.4-5.7H272l-.7 2.7zm-82.1 42c-.6.3-.9 1-.6 1.5.4.6.2.8-.4.4-1.4-.9-10.5 2.8-9.5 3.9.4.4.3.5-.3.2-1.4-.8-11.4 3.2-11.4 4.5 0 .5-.4.7-.9.4-.5-.3-6.7 1.9-13.7 5-7.1 3-13.8 5.9-14.9 6.4-1.1.4-3.6 1.5-5.5 2.3-1.9.8-8 3.4-13.5 5.7-5.5 2.3-10.2 4.6-10.3 5.1-.2.5-.7.7-1.2.4-.7-.4-5.2 1.4-17.7 7.1-1.7.8-3.6 1.4-4.2 1.4-1.3 0-1.3-.4-1.6 15-.3 13.3.1 18 1.6 18 .4 0 3.9 1.4 7.6 3.1 3.8 1.7 7.8 3.2 9 3.3 1.2 0 2 .3 1.7.5-.7.8 5 3.2 6.3 2.6.8-.2 1.1-.1.8.4-.3.5.5 1.3 1.7 1.7 3.7 1.1 44.1 18.3 47.1 20 1.5.8 2.7 1.3 2.7.9 0-.3 2.3.6 5 2 2.8 1.4 5.5 2.3 6 2 .6-.4 1-.3 1 .2 0 .4 1.5 1.4 3.3 2.2 1.7.7 5.6 2.4 8.5 3.7 2.8 1.2 5.3 2.2 5.3 2.1.1-.1.3-8.2.4-18 .1-11.6-.2-18.1-.9-18.6-2-1.6-21.8-8.1-22.9-7.4-.5.3-.7.2-.4-.4.4-.6-2-1.8-5.6-2.8-3.4-1-6.7-2.2-7.4-2.7-.6-.5-2.2-1.1-3.5-1.2-1.3-.2-4.5-1.3-7.2-2.5s-5.5-2-6.3-1.7c-.7.3-1.3.2-1.3-.2 0-.5-3-1.9-6.7-3.3-4.8-1.7-6.1-2.5-4.5-2.7 1.2-.2 2-.7 1.8-1.1-.3-.4.3-.7 1.2-.7 2.3 0 42.6-14.7 43-15.6.2-.5.8-.6 1.2-.3 1 .6 9.2-2.4 10.1-3.8.3-.5.9-.8 1.3-.7 1.3.2 7.6-1.2 7.7-1.9.5-2.1.4-36.3 0-36.5-.3-.2-1.2-.1-1.9.1zM318 213.6c0 10.1.2 18.4.4 18.4s5.5 1.8 11.8 4c6.2 2.2 11.9 3.8 12.6 3.5.7-.3 1 0 .7.5-.6.9 1 1.4 4.2 1.3.7-.1 1.1.3.8.7-.6 1 7.3 3.2 8.7 2.4.6-.4.8-.3.5.3-.4.6.3 1.3 1.6 1.6 1.2.3 7.3 2.4 13.6 4.6 6.2 2.2 11.8 3.8 12.4 3.4.6-.3.7-.1.3.5-.4.7-.2 1.2.3 1.2 1.9 0 1.2 1.6-.6 1.7-1 0-8.3 2.4-16.3 5.3-8 2.8-17.2 6.1-20.5 7.3-3.3 1.1-6.2 2.3-6.5 2.6-.3.3-1.4.7-2.5.9-1.1.2-5.8 1.7-10.5 3.3-4.7 1.7-9.1 3.2-9.7 3.4-1 .3-1.3 5-1.3 18.9 0 17.9.1 18.4 2 17.9 1.1-.3 1.7-1 1.3-1.6-.3-.5-.1-.7.5-.3.6.3 2.6 0 4.4-.8 1.8-.8 5.2-2.3 7.5-3.2 2.3-1 3.9-2.2 3.6-2.7-.4-.6-.1-.7.6-.3 1.3.8 7.1-1.1 7.1-2.3 0-.4.8-.7 1.8-.8 3-.1 18.2-7 17.4-7.8-.4-.5-.2-.5.4-.2 1.4.8 11.8-3.6 10.8-4.5-.3-.4.4-.4 1.7-.1 1.7.5 2 .3 1.4-.7-.5-.8-.4-1.1.2-.7 1.5.9 7.5-1.7 6.6-2.8-.5-.4-.3-.5.4-.1.7.3 3.1-.2 5.5-1.3s5.3-2.2 6.6-2.6c1.2-.4 1.9-1.1 1.6-1.7-.4-.7-.2-.8.4-.4 1.4.9 17.4-5.8 16.5-6.9-.5-.4-.3-.5.4-.2.6.4 3.2-.2 5.7-1.3l4.6-1.9v-31l-3-1.6c-1.7-.9-3.5-1.3-4-1-.6.3-1 .3-1-.2 0-1.3-5.8-3.5-7.1-2.7-.7.4-.9.3-.5-.4.3-.6-.4-1.4-1.6-1.8-2-.6-16.1-6.4-26.3-10.9-8.1-3.5-20.3-8.5-20.8-8.5-.3 0-3.4-1.3-6.9-2.9-15.1-6.9-26-11.1-27-10.5-.6.4-.9.3-.5-.2.3-.5-1.9-1.9-4.9-3.1l-5.4-2.1v18.4z"/></svg>