<?xml version="1.0" standalone="no"?>
<!DOCTYPE svg PUBLIC "-//W3C//DTD SVG 20010904//EN"
 "http://www.w3.org/TR/2001/REC-SVG-20010904/DTD/svg10.dtd">
<svg version="1.0" xmlns="http://www.w3.org/2000/svg"
 width="512.000000pt" height="512.000000pt" viewBox="0 0 512.000000 512.000000"
 preserveAspectRatio="xMidYMid meet">
<metadata>
Created by potrace 1.11, written by Peter Selinger 2001-2013
</metadata>
<g transform="translate(0.000000,512.000000) scale(0.100000,-0.100000)"
fill="#000000" stroke="none">
<path d="M2713 3583 c-4 -16 -8 -30 -8 -33 -1 -3 -4 -12 -8 -20 -11 -27 -88
-254 -107 -315 -10 -33 -51 -154 -90 -270 -94 -273 -371 -1090 -414 -1223 -25
-75 -31 -105 -22 -108 7 -3 68 -3 136 -2 l124 3 78 230 c109 322 211 625 398
1175 89 261 163 482 165 490 2 8 8 28 14 43 22 57 23 57 -124 57 l-135 0 -7
-27z"/>
<path d="M1892 3163 c-6 -3 -9 -10 -6 -15 4 -6 2 -8 -4 -4 -14 9 -105 -28 -95
-39 4 -4 3 -5 -3 -2 -14 8 -114 -32 -114 -45 0 -5 -4 -7 -9 -4 -5 3 -67 -19
-137 -50 -71 -30 -138 -59 -149 -64 -11 -4 -36 -15 -55 -23 -19 -8 -80 -34
-135 -57 -55 -23 -102 -46 -103 -51 -2 -5 -7 -7 -12 -4 -7 4 -52 -14 -177 -71
-17 -8 -36 -14 -42 -14 -13 0 -13 4 -16 -150 -3 -133 1 -180 16 -180 4 0 39
-14 76 -31 38 -17 78 -32 90 -33 12 0 20 -3 17 -5 -7 -8 50 -32 63 -26 8 2 11
1 8 -4 -3 -5 5 -13 17 -17 37 -11 441 -183 471 -200 15 -8 27 -13 27 -9 0 3
23 -6 50 -20 28 -14 55 -23 60 -20 6 4 10 3 10 -2 0 -4 15 -14 33 -22 17 -7
56 -24 85 -37 28 -12 53 -22 53 -21 1 1 3 82 4 180 1 116 -2 181 -9 186 -20
16 -218 81 -229 74 -5 -3 -7 -2 -4 4 4 6 -20 18 -56 28 -34 10 -67 22 -74 27
-6 5 -22 11 -35 12 -13 2 -45 13 -72 25 -27 12 -55 20 -63 17 -7 -3 -13 -2
-13 2 0 5 -30 19 -67 33 -48 17 -61 25 -45 27 12 2 20 7 18 11 -3 4 3 7 12 7
23 0 426 147 430 156 2 5 8 6 12 3 10 -6 92 24 101 38 3 5 9 8 13 7 13 -2 76
12 77 19 5 21 4 363 0 365 -3 2 -12 1 -19 -1z"/>
<path d="M3180 2984 c0 -101 2 -184 4 -184 2 0 55 -18 118 -40 62 -22 119 -38
126 -35 7 3 10 0 7 -5 -6 -9 10 -14 42 -13 7 1 11 -3 8 -7 -6 -10 73 -32 87
-24 6 4 8 3 5 -3 -4 -6 3 -13 16 -16 12 -3 73 -24 136 -46 62 -22 118 -38 124
-34 6 3 7 1 3 -5 -4 -7 -2 -12 3 -12 19 0 12 -16 -6 -17 -10 0 -83 -24 -163
-53 -80 -28 -172 -61 -205 -73 -33 -11 -62 -23 -65 -26 -3 -3 -14 -7 -25 -9
-11 -2 -58 -17 -105 -33 -47 -17 -91 -32 -97 -34 -10 -3 -13 -50 -13 -189 0
-179 1 -184 20 -179 11 3 17 10 13 16 -3 5 -1 7 5 3 6 -3 26 0 44 8 18 8 52
23 75 32 23 10 39 22 36 27 -4 6 -1 7 6 3 13 -8 71 11 71 23 0 4 8 7 18 8 30
1 182 70 174 78 -4 5 -2 5 4 2 14 -8 118 36 108 45 -3 4 4 4 17 1 17 -5 20 -3
14 7 -5 8 -4 11 2 7 15 -9 75 17 66 28 -5 4 -3 5 4 1 7 -3 31 2 55 13 24 11
53 22 66 26 12 4 19 11 16 17 -4 7 -2 8 4 4 14 -9 174 58 165 69 -5 4 -3 5 4
2 6 -4 32 2 57 13 l46 19 0 155 0 155 -30 16 c-17 9 -35 13 -40 10 -6 -3 -10
-3 -10 2 0 13 -58 35 -71 27 -7 -4 -9 -3 -5 4 3 6 -4 14 -16 18 -20 6 -161 64
-263 109 -81 35 -203 85 -208 85 -3 0 -34 13 -69 29 -151 69 -260 111 -270
105 -6 -4 -9 -3 -5 2 3 5 -19 19 -49 31 l-54 21 0 -184z"/>
</g>
</svg>
